# 3ds Max Wavefront OBJ Exporter v0.97b - (c)2007 guruware
# File Created: 08.05.2018 21:13:33

mtllib TabletMesh.mtl

#
# object default
#

v  -2.8649 -2.3124 10.5499
v  -2.8910 -1.8614 10.3825
v  -2.3780 -1.8627 10.3700
v  -2.3834 -2.3076 10.5507
v  -2.8440 -1.3601 10.3270
v  -2.3478 -1.3685 10.3321
v  -1.9004 -1.8801 10.4007
v  -1.9222 -2.3114 10.6078
v  -2.7862 -0.8651 10.2844
v  -2.3007 -0.8855 10.2756
v  -1.8712 -1.4092 10.3354
v  -3.2486 -0.8518 10.3422
v  -3.2363 -1.3521 10.5257
v  -2.7434 -0.3785 10.2238
v  -2.2358 -0.4129 10.2233
v  -1.8235 -0.9371 10.2773
v  -1.3975 -1.4701 10.3352
v  -1.4395 -1.9331 10.4157
v  -3.2550 -0.3824 10.2467
v  -2.7058 0.1001 10.1800
v  -2.2067 0.0701 10.1747
v  -1.7661 -0.4579 10.2262
v  -1.3436 -1.0032 10.2764
v  -0.9305 -1.5535 10.3325
v  -0.9811 -1.9976 10.4648
v  -3.2371 0.1063 10.1806
v  -2.6561 0.5795 10.1266
v  -2.1572 0.5469 10.1219
v  -1.7072 0.0130 10.1736
v  -1.2766 -0.5243 10.2309
v  -0.8666 -1.0898 10.2816
v  -0.4464 -1.6201 10.3371
v  -0.5094 -2.0571 10.4996
v  -3.1587 0.5911 10.1204
v  -2.6041 1.0661 10.0684
v  -2.0957 1.0264 10.0692
v  -1.6653 0.4942 10.1275
v  -1.2321 -0.0472 10.1776
v  -0.7949 -0.5939 10.2323
v  -0.3856 -1.1443 10.2878
v  -3.5246 0.6611 10.3149
v  -3.6334 0.1534 10.4200
v  -3.0983 1.0839 10.0808
v  -2.5664 1.5441 10.0312
v  -2.0269 1.5029 10.0019
v  -1.5929 0.9706 10.0647
v  -1.1757 0.4241 10.1223
v  -0.7588 -0.1164 10.1755
v  -0.3243 -0.6671 10.2291
v  0.0452 -1.6699 10.3802
v  0.1039 -1.2052 10.2789
v  -3.5444 1.0938 10.1577
v  -3.0852 1.5660 10.0345
v  -1.5170 1.4437 10.0162
v  -1.1094 0.8963 10.0796
v  -0.6931 0.3488 10.1189
v  -0.2707 -0.1933 10.1792
v  0.1628 -0.7321 10.2314
v  0.6050 -1.2595 10.2785
v  0.5478 -1.7180 10.4032
v  -3.5623 1.5592 10.1272
v  -1.0329 1.3711 10.0253
v  -0.6285 0.8217 10.0737
v  -0.2111 0.2781 10.1256
v  0.2181 -0.2645 10.1764
v  0.6593 -0.7845 10.2266
v  1.0593 -1.7448 10.4548
v  1.1013 -1.3045 10.2710
v  -0.5630 1.2985 10.0292
v  -0.1506 0.7541 10.0789
v  0.2697 0.2207 10.1288
v  0.7088 -0.3079 10.1786
v  1.1628 -0.8236 10.2291
v  1.5391 -1.7560 10.4950
v  1.5885 -1.3312 10.2697
v  -0.9530 1.8455 9.9634
v  -0.4952 1.7677 9.9401
v  -0.0974 1.2295 10.0320
v  0.3107 0.6926 10.0777
v  0.7805 0.1649 10.1250
v  1.2157 -0.3430 10.1677
v  1.6707 -0.8377 10.2149
v  -0.0407 1.7031 9.9738
v  0.3696 1.1672 10.0249
v  0.8046 0.6477 10.0726
v  1.2609 0.1409 10.1233
v  1.7450 -0.3385 10.1525
v  2.0078 -1.3334 10.3554
v  2.0858 -0.8395 10.3688
v  0.4119 1.6424 9.9954
v  0.8425 1.1288 10.0243
v  1.2917 0.6277 10.0677
v  1.7492 0.1474 10.1235
v  0.8799 1.6068 9.9677
v  1.3467 1.1201 10.0122
v  1.7434 0.6439 10.1214
v  1.4077 1.6003 9.9453
v  1.6791 1.1298 10.2537
v  0.8903 2.0825 9.9356
v  1.3413 2.0745 9.9956
v  1.6825 1.5586 10.2638
# 101 vertices

vn -0.0102 -0.3623 -0.9320
vn -0.0085 -0.0929 -0.9956
vn 0.0755 -0.4055 -0.9110
vn -0.0065 -0.1000 -0.9950
vn 0.0289 -0.1074 -0.9938
vn -0.2804 -0.2057 -0.9376
vn -0.0154 -0.1153 -0.9932
vn -0.0063 -0.1185 -0.9929
vn -0.0035 -0.1540 -0.9881
vn -0.0811 -0.1571 -0.9843
vn -0.0117 -0.0949 -0.9954
vn -0.0062 -0.1072 -0.9942
vn -0.0174 -0.1216 -0.9924
vn 0.0117 -0.2292 -0.9733
vn -0.0223 -0.1120 -0.9935
vn -0.0167 -0.1087 -0.9939
vn -0.0094 -0.1047 -0.9945
vn -0.0095 -0.0990 -0.9950
vn -0.0180 -0.1147 -0.9932
vn -0.0032 -0.3171 -0.9484
vn 0.0032 -0.1174 -0.9931
vn -0.0119 -0.1127 -0.9936
vn -0.0068 -0.1020 -0.9948
vn -0.0055 -0.1105 -0.9939
vn -0.0088 -0.0956 -0.9954
vn -0.0021 -0.1057 -0.9944
vn -0.5010 -0.0501 -0.8640
vn -0.0089 -0.0982 -0.9951
vn -0.0360 -0.1050 -0.9938
vn -0.0118 -0.1183 -0.9929
vn -0.0154 -0.1041 -0.9944
vn -0.0172 -0.1131 -0.9934
vn -0.0113 -0.1086 -0.9940
vn 0.0165 -0.1598 -0.9870
vn -0.3213 -0.1773 -0.9302
vn -0.0186 -0.0857 -0.9961
vn -0.0039 -0.1206 -0.9927
vn -0.0065 -0.1098 -0.9939
vn -0.0233 -0.1156 -0.9930
vn -0.0166 -0.1098 -0.9938
vn -0.0207 -0.1086 -0.9939
vn -0.0023 -0.2375 -0.9714
vn -0.1806 -0.0805 -0.9803
vn 0.0081 -0.1092 -0.9940
vn -0.0236 -0.0894 -0.9957
vn -0.0070 -0.1160 -0.9932
vn -0.0157 -0.1089 -0.9939
vn -0.0161 -0.1023 -0.9946
vn 0.0191 -0.3265 -0.9450
vn -0.0178 -0.1006 -0.9948
vn -0.0015 -0.0962 -0.9954
vn -0.0134 -0.1035 -0.9945
vn -0.0130 -0.1070 -0.9942
vn -0.0130 -0.0960 -0.9953
vn 0.0192 -0.4292 -0.9030
vn -0.0447 -0.1510 -0.9875
vn -0.0054 -0.0949 -0.9955
vn -0.0105 -0.1015 -0.9948
vn -0.0119 -0.1034 -0.9946
vn -0.0166 -0.1119 -0.9936
vn -0.0197 -0.0961 -0.9952
vn 0.0160 -0.1565 -0.9876
vn -0.0224 -0.1017 -0.9946
vn -0.0194 -0.1065 -0.9941
vn -0.0189 -0.0995 -0.9949
vn -0.0293 -0.1215 -0.9922
vn 0.2760 -0.0854 -0.9574
vn 0.0029 -0.0925 -0.9957
vn -0.0150 -0.1037 -0.9945
vn -0.0119 -0.1101 -0.9938
vn -0.0145 -0.0746 -0.9971
vn -0.0368 -0.0871 -0.9955
vn -0.0202 -0.1042 -0.9944
vn 0.0565 -0.0596 -0.9966
vn -0.0351 -0.1242 -0.9916
vn 0.3345 0.0797 -0.9390
vn 0.0322 0.0210 -0.9993
vn 0.6726 -0.1000 -0.7332
# 78 vertex normals

vt 0.9229 0.0240 0.0000
vt 0.9162 0.1053 0.0000
vt 0.8245 0.0922 0.0000
vt 0.8367 0.0128 0.0000
vt 0.8952 0.1938 0.0000
vt 0.8067 0.1798 0.0000
vt 0.7396 0.0771 0.0000
vt 0.7543 0.0005 0.0000
vt 0.8725 0.2809 0.0000
vt 0.7862 0.2650 0.0000
vt 0.7225 0.1606 0.0000
vt 0.9548 0.2949 0.0000
vt 0.9652 0.2051 0.0000
vt 0.8526 0.3668 0.0000
vt 0.7627 0.3479 0.0000
vt 0.7021 0.2438 0.0000
vt 0.6393 0.1378 0.0000
vt 0.6585 0.0560 0.0000
vt 0.9442 0.3790 0.0000
vt 0.8338 0.4515 0.0000
vt 0.7453 0.4336 0.0000
vt 0.6798 0.3281 0.0000
vt 0.6179 0.2199 0.0000
vt 0.5579 0.1111 0.0000
vt 0.5781 0.0330 0.0000
vt 0.9287 0.4659 0.0000
vt 0.8129 0.5360 0.0000
vt 0.7245 0.5176 0.0000
vt 0.6574 0.4108 0.0000
vt 0.5939 0.3039 0.0000
vt 0.5348 0.1924 0.0000
vt 0.4730 0.0870 0.0000
vt 0.4952 0.0105 0.0000
vt 0.9025 0.5507 0.0000
vt 0.7913 0.6217 0.0000
vt 0.7014 0.6018 0.0000
vt 0.6378 0.4958 0.0000
vt 0.5740 0.3881 0.0000
vt 0.5095 0.2793 0.0000
vt 0.4502 0.1706 0.0000
vt 0.9662 0.5724 0.0000
vt 0.9984 0.4843 0.0000
vt 0.8793 0.6373 0.0000
vt 0.7726 0.7062 0.0000
vt 0.6772 0.6853 0.0000
vt 0.6129 0.5792 0.0000
vt 0.5520 0.4710 0.0000
vt 0.4911 0.3638 0.0000
vt 0.4272 0.2544 0.0000
vt 0.3863 0.0658 0.0000
vt 0.3641 0.1474 0.0000
vt 0.9588 0.6503 0.0000
vt 0.8648 0.7232 0.0000
vt 0.5874 0.6619 0.0000
vt 0.5283 0.5537 0.0000
vt 0.4676 0.4454 0.0000
vt 0.4057 0.3378 0.0000
vt 0.3417 0.2305 0.0000
vt 0.2759 0.1251 0.0000
vt 0.2976 0.0445 0.0000
vt 0.9503 0.7339 0.0000
vt 0.5027 0.6367 0.0000
vt 0.4442 0.5283 0.0000
vt 0.3832 0.4206 0.0000
vt 0.3201 0.3128 0.0000
vt 0.2542 0.2087 0.0000
vt 0.2068 0.0269 0.0000
vt 0.1883 0.1046 0.0000
vt 0.4205 0.6119 0.0000
vt 0.3604 0.5042 0.0000
vt 0.2987 0.3982 0.0000
vt 0.2334 0.2927 0.0000
vt 0.1652 0.1890 0.0000
vt 0.1213 0.0128 0.0000
vt 0.1018 0.0876 0.0000
vt 0.4765 0.7196 0.0000
vt 0.3966 0.6942 0.0000
vt 0.3390 0.5879 0.0000
vt 0.2795 0.4816 0.0000
vt 0.2087 0.3754 0.0000
vt 0.1436 0.2737 0.0000
vt 0.0747 0.1737 0.0000
vt 0.3169 0.6712 0.0000
vt 0.2570 0.5650 0.0000
vt 0.1922 0.4612 0.0000
vt 0.1234 0.3591 0.0000
vt 0.0489 0.2612 0.0000
vt 0.0269 0.0766 0.0000
vt 0.0005 0.1630 0.0000
vt 0.2375 0.6489 0.0000
vt 0.1734 0.5463 0.0000
vt 0.1057 0.4453 0.0000
vt 0.0359 0.3480 0.0000
vt 0.1547 0.6308 0.0000
vt 0.0834 0.5320 0.0000
vt 0.0245 0.4369 0.0000
vt 0.0604 0.6164 0.0000
vt 0.0237 0.5254 0.0000
vt 0.1409 0.7156 0.0000
vt 0.0604 0.7029 0.0000
vt 0.9995 0.1895 0.0000
vt 0.8989 0.1894 0.0000
vt 0.9167 0.1252 0.0000
vt 1.0029 0.1280 0.0000
# 104 texture coords

o default
g default
usemtl default
s 1
f 1/1/1 2/2/1 3/3/1 4/4/1 
f 5/5/2 6/6/2 3/3/2 2/2/2 
f 4/4/3 3/3/3 7/7/3 8/8/3 
f 9/9/4 10/10/4 6/6/4 5/5/4 
f 6/6/5 11/11/5 7/7/5 3/3/5 
f 12/12/6 9/9/6 5/5/6 13/13/6 
f 14/14/7 15/15/7 10/10/7 9/9/7 
f 10/10/8 16/16/8 11/11/8 6/6/8 
f 7/7/9 11/11/9 17/17/9 18/18/9 
f 19/19/10 14/14/10 9/9/10 12/12/10 
f 20/20/11 21/21/11 15/15/11 14/14/11 
f 15/15/12 22/22/12 16/16/12 10/10/12 
f 11/11/13 16/16/13 23/23/13 17/17/13 
f 18/18/14 17/17/14 24/24/14 25/25/14 
f 26/26/15 20/20/15 14/14/15 19/19/15 
f 27/27/16 28/28/16 21/21/16 20/20/16 
f 15/15/17 21/21/17 29/29/17 22/22/17 
f 16/16/18 22/22/18 30/30/18 23/23/18 
f 17/17/19 23/23/19 31/31/19 24/24/19 
f 25/25/20 24/24/20 32/32/20 33/33/20 
f 34/34/21 27/27/21 20/20/21 26/26/21 
f 35/35/22 36/36/22 28/28/22 27/27/22 
f 21/21/23 28/28/23 37/37/23 29/29/23 
f 22/22/24 29/29/24 38/38/24 30/30/24 
f 23/23/25 30/30/25 39/39/25 31/31/25 
f 31/31/26 40/40/26 32/32/26 24/24/26 
f 41/41/27 34/34/27 26/26/27 42/42/27 
f 43/43/28 35/35/28 27/27/28 34/34/28 
f 44/44/29 45/45/29 36/36/29 35/35/29 
f 36/36/30 46/46/30 37/37/30 28/28/30 
f 29/29/31 37/37/31 47/47/31 38/38/31 
f 30/30/32 38/38/32 48/48/32 39/39/32 
f 39/39/33 49/49/33 40/40/33 31/31/33 
f 50/50/34 32/32/34 40/40/34 51/51/34 
f 52/52/35 43/43/35 34/34/35 41/41/35 
f 53/53/36 44/44/36 35/35/36 43/43/36 
f 46/46/37 36/36/37 45/45/37 54/54/37 
f 46/46/38 55/55/38 47/47/38 37/37/38 
f 38/38/39 47/47/39 56/56/39 48/48/39 
f 39/39/40 48/48/40 57/57/40 49/49/40 
f 49/49/41 58/58/41 51/51/41 40/40/41 
f 51/51/42 59/59/42 60/60/42 50/50/42 
f 61/61/43 53/53/43 43/43/43 52/52/43 
f 54/54/44 62/62/44 55/55/44 46/46/44 
f 47/47/45 55/55/45 63/63/45 56/56/45 
f 48/48/46 56/56/46 64/64/46 57/57/46 
f 49/49/47 57/57/47 65/65/47 58/58/47 
f 59/59/48 51/51/48 58/58/48 66/66/48 
f 67/67/49 60/60/49 59/59/49 68/68/49 
f 55/55/50 62/62/50 69/69/50 63/63/50 
f 56/56/51 63/63/51 70/70/51 64/64/51 
f 57/57/52 64/64/52 71/71/52 65/65/52 
f 66/66/53 58/58/53 65/65/53 72/72/53 
f 66/66/54 73/73/54 68/68/54 59/59/54 
f 74/74/55 67/67/55 68/68/55 75/75/55 
f 76/76/56 77/77/56 69/69/56 62/62/56 
f 63/63/57 69/69/57 78/78/57 70/70/57 
f 64/64/58 70/70/58 79/79/58 71/71/58 
f 71/71/59 80/80/59 72/72/59 65/65/59 
f 72/72/60 81/81/60 73/73/60 66/66/60 
f 75/75/61 68/68/61 73/73/61 82/82/61 
f 69/69/62 77/77/62 83/83/62 78/78/62 
f 70/70/63 78/78/63 84/84/63 79/79/63 
f 71/71/64 79/79/64 85/85/64 80/80/64 
f 80/80/65 86/86/65 81/81/65 72/72/65 
f 81/81/66 87/87/66 82/82/66 73/73/66 
f 88/88/67 75/75/67 82/82/67 89/89/67 
f 78/78/68 83/83/68 90/90/68 84/84/68 
f 84/84/69 91/91/69 85/85/69 79/79/69 
f 85/85/70 92/92/70 86/86/70 80/80/70 
f 86/86/71 93/93/71 87/87/71 81/81/71 
f 90/90/72 94/94/72 91/91/72 84/84/72 
f 91/91/73 95/95/73 92/92/73 85/85/73 
f 92/92/74 96/96/74 93/93/74 86/86/74 
f 95/95/75 91/91/75 94/94/75 97/97/75 
f 96/96/76 92/92/76 95/95/76 98/98/76 
f 94/94/77 99/99/77 100/100/77 97/97/77 
f 95/101/78 97/102/78 101/103/78 98/104/78 
# 78 polygons

